<svg width="30" height="30" viewBox="0 0 30 30" fill="none" xmlns="http://www.w3.org/2000/svg">
<path d="M20.5 7.5L2 26L3.5 27.5L22 9L20.5 7.5Z" fill="#DB7093" stroke="#DB7093"/>
<path d="M10.5 8.5L28 26L26.5 27.5L9 10" stroke="#DB7093"/>
<rect x="20.5355" y="1.70711" width="11" height="4" transform="rotate(45 20.5355 1.70711)" stroke="#DB7093"/>
<path d="M5.11815 1.91104C5.6904 1.64719 6.32758 1.5 7 1.5C9.48528 1.5 11.5 3.51472 11.5 6C11.5 8.48528 9.48528 10.5 7 10.5C4.51472 10.5 2.5 8.48528 2.5 6C2.5 5.32758 2.64719 4.6904 2.91104 4.11815L5.14645 6.35355L5.5 6.70711L5.85355 6.35355L7.35355 4.85355L7.70711 4.5L7.35355 4.14645L5.11815 1.91104Z" stroke="#DB7093"/>
</svg>
